<svg xmlns="http://www.w3.org/2000/svg" width="190" height="96" viewBox="0 0 190 96">
    <path fill="#FFF" fill-rule="evenodd" d="M38.42 47.258c.846-.334 1.426-.756 1.701-1.693l.466-1.414c.418-1.445-.324-2.203-1.717-1.729l-1.892.604 9.551-29.236 3.135-1.817 2.293 2.5-1.334 4.14-1.667.903c-.84.412-1.262.938-1.492 1.764l-.301.911c-.299 1.099.685 1.884 1.7 1.573L56 21.319c1.035-.374 1.35-.868 1.65-1.781l2.206-6.85c.3-.913.142-1.615-.58-2.335l-5.617-5.667c-.731-.8-1.542-.87-2.451-.37l-12.014 6.836c-.76.403-1.182.93-1.413 1.754L26.962 46.438l-5.185 1.769c-1.18.415-1.351.682-1.659 1.701l-.442 1.439c-.42 1.461.563 2.046 1.71 1.651l3.836-1.252-11.337 34.61-3.761 1.835-2.246-2.448 1.306-4.056 1.633-.884c.822-.403 1.236-.919 1.462-1.728l.295-.892c.292-1.076-.671-1.846-1.667-1.54l-6.575.745c-1.014.366-1.322.85-1.616 1.744L.141 87.491c-.295.894-.138 1.581.568 2.286l6.33 5.551c.716.783 1.51.852 2.4.362l11.767-6.695c.744-.395 1.158-.93 1.384-1.737l12.726-38.932 3.104-1.068zM182 22.386L178.902 19 172 43.182 174.505 46l.847-.512L182 22.386zM78 41l6-6.357L80.578 30 78 41zm43-5l6-6.01-3.46-3.99L121 36zm68.865-10.13l-5.738 18.612c-.22.84-.639 1.38-1.473 1.808l-9.418 5.388c-.904.518-1.726.374-2.467-.43l-4.685-5.108-8.382 7.299c-.875.758-1.697.615-2.517-.18l-4.65-5.094-8.195 7.191c-.876.758-1.698.616-2.518-.18l-5.403-5.911-16.24 9.165c-.903.519-1.726.375-2.466-.43l-4.833-5.216-11.447 7.946c-.894.598-1.707.535-2.447-.27l-5.434-5.966-16.302 9.202c-.904.518-1.727.374-2.468-.43l-7.117-7.68c-.652-.735-.818-1.447-.527-2.379l7.125-22.288c.3-.85.797-1.4 1.641-1.748l6.845-2.369c.924-.357 1.676-.124 2.408.6l6.482 7.261c.83.875.777 1.777-.098 2.535L75.558 49.495l-1.745 5.586 2.676 2.847 13.76-7.792 11.355-36.934c.281-1.011.397-1.3 1.534-1.707l5.946-2.048c1.094-.338 1.984.548 1.52 1.93l-3.74 12.332 2.94-1.013c1.39-.495 1.967.37 1.62 1.488l-.283.897c-.373 1.213-.511 1.682-1.569 2.1l-4.1 1.403-7.398 24.01 1.481 1.61 8.954-5.901c.07-.044.138-.074.208-.11l6.271-21.695c.3-.85.798-1.4 1.642-1.747l7.178-2.528c.923-.357 1.675-.124 2.407.6l6.355 6.575c.829.875.776 1.777-.099 2.535L118.488 44.23l-1.745 5.586 2.677 2.847 13.565-7.681L144.81 6.613c.281-1.011.774-1.473 1.896-1.856l5.629-1.948c1.405-.506 2.104.363 1.715 1.593L140.915 47.34l1.828 1.81 5.29-4.738c.02-.18 12.42-40.474 12.42-40.474.282-1.011.524-1.384 1.514-1.722L167.96.12c1.26-.439 2.136.35 1.6 1.921l-13.247 43.41 1.828 1.811 5.391-4.829c.01-.231.051-.473.133-.732l6.827-22.756c.291-.93.799-1.4 1.642-1.748l6.774-2.352c1.002-.367 1.746-.214 2.397.52l7.953 8.138c.73.724.896 1.437.606 2.368zM55.999 30.509l-5.732 1.936c-.853.342-1.366.805-1.66 1.724L40.14 59.903c-.293.918-.126 1.62.533 2.344l3.84 4.115c.939 1.012 1.97.808 2.376-.525l10.334-32.294 3.163 3.234-1.57 5.084c-.406 1.333.172 2.066 1.535 1.903l5.37-.643c.962-.115 1.555-.587 1.84-1.584l.303-.84c.294-.918.126-1.62-.612-2.335l-7.534-7.686c-.928-.932-1.778-.814-3.718-.168zm118.963 28.488l-.135.952c-.24 1.357-.891 1.51-2.05 1.7L31.472 81.985c-1.19.164-1.707-.943-1.37-2.015l1.24-3.839c.304-1.022.903-1.496 1.862-1.593l140.134-17.516c1.431-.168 1.793.697 1.625 1.975z"/>
</svg>
